<svg xmlns="http://www.w3.org/2000/svg" width="1280" height="800" viewBox="0 0 1280 800" role="img" aria-label="סביבת פרויקט ב-ProjectFlow">
  <defs>
    <linearGradient id="bg" x1="0" y1="0" x2="1" y2="1">
      <stop offset="0%" stop-color="#F8FAFB"/>
      <stop offset="100%" stop-color="#EEF5F4"/>
    </linearGradient>
  </defs>

  <rect width="1280" height="800" fill="url(#bg)"/>
  <rect x="24" y="24" width="1232" height="44" rx="8" fill="#fff" stroke="#E2E6EB"/>
  <circle cx="48" cy="46" r="5" fill="#D1D5DB"/>
  <circle cx="66" cy="46" r="5" fill="#D1D5DB"/>
  <circle cx="84" cy="46" r="5" fill="#D1D5DB"/>
  <rect x="120" y="36" width="280" height="20" rx="6" fill="#F4F6F8"/>
  <text x="132" y="50" fill="#6B7280" font-family="Assistant, Arial, sans-serif" font-size="12">חיפוש בכל העסק</text>
  <rect x="24" y="84" width="200" height="692" rx="10" fill="#fff" stroke="#E2E6EB"/>
  <text x="44" y="118" fill="#0F766E" font-family="Assistant, Arial, sans-serif" font-size="16" font-weight="700">ProjectFlow</text>
  <rect x="40" y="132" width="168" height="28" rx="6" fill="#fff" fill-opacity="0"/>
  <text x="52" y="148" fill="#4B5563" font-family="Assistant, Arial, sans-serif" font-size="13" font-weight="500">היום</text>
<rect x="40" y="166" width="168" height="28" rx="6" fill="#0F766E" fill-opacity="0.12"/>
  <text x="52" y="182" fill="#0F766E" font-family="Assistant, Arial, sans-serif" font-size="13" font-weight="700">פרויקטים</text>
<rect x="40" y="200" width="168" height="28" rx="6" fill="#fff" fill-opacity="0"/>
  <text x="52" y="216" fill="#4B5563" font-family="Assistant, Arial, sans-serif" font-size="13" font-weight="500">לקוחות</text>
<rect x="40" y="234" width="168" height="28" rx="6" fill="#fff" fill-opacity="0"/>
  <text x="52" y="250" fill="#4B5563" font-family="Assistant, Arial, sans-serif" font-size="13" font-weight="500">ספקים</text>
<rect x="40" y="268" width="168" height="28" rx="6" fill="#fff" fill-opacity="0"/>
  <text x="52" y="284" fill="#4B5563" font-family="Assistant, Arial, sans-serif" font-size="13" font-weight="500">דוחות</text>
  <rect x="240" y="84" width="1016" height="56" rx="10" fill="#fff" stroke="#E2E6EB"/>
  <text x="264" y="118" fill="#111827" font-family="Assistant, Arial, sans-serif" font-size="20" font-weight="700">שיפוץ דירה 14</text>

  <text x="264" y="160" fill="#6B7280" font-family="Assistant, Arial, sans-serif" font-size="13">לקוח גולן · פעיל</text>
  <text x="264" y="210" fill="#0F766E" font-family="Assistant, Arial, sans-serif" font-size="13" font-weight="700">סקירה</text>
  <rect x="264" y="218" width="36" height="3" rx="2" fill="#0F766E"/>
<text x="374" y="210" fill="#6B7280" font-family="Assistant, Arial, sans-serif" font-size="13" font-weight="500">כספים</text>
  
<text x="484" y="210" fill="#6B7280" font-family="Assistant, Arial, sans-serif" font-size="13" font-weight="500">ספקים</text>
  
<text x="594" y="210" fill="#6B7280" font-family="Assistant, Arial, sans-serif" font-size="13" font-weight="500">עובדים</text>
  
<text x="704" y="210" fill="#6B7280" font-family="Assistant, Arial, sans-serif" font-size="13" font-weight="500">מסמכים</text>
  
<text x="814" y="210" fill="#6B7280" font-family="Assistant, Arial, sans-serif" font-size="13" font-weight="500">שטח</text>
  
  <rect x="240" y="248" width="502" height="132" rx="10" fill="#fff" stroke="#E2E6EB"/>
  <text x="264" y="290" fill="#6B7280" font-family="Assistant, Arial, sans-serif" font-size="13">חוזה / ערך</text>
  <text x="264" y="334" fill="#111827" font-family="Assistant, Arial, sans-serif" font-size="28" font-weight="700">₪420,000</text>
<rect x="754" y="248" width="502" height="132" rx="10" fill="#fff" stroke="#E2E6EB"/>
  <text x="778" y="290" fill="#6B7280" font-family="Assistant, Arial, sans-serif" font-size="13">עלות בפועל</text>
  <text x="778" y="334" fill="#111827" font-family="Assistant, Arial, sans-serif" font-size="28" font-weight="700">₪286,400</text>
<rect x="240" y="398" width="502" height="132" rx="10" fill="#fff" stroke="#E2E6EB"/>
  <text x="264" y="440" fill="#6B7280" font-family="Assistant, Arial, sans-serif" font-size="13">התקדמות</text>
  <text x="264" y="484" fill="#111827" font-family="Assistant, Arial, sans-serif" font-size="28" font-weight="700">62%</text>
<rect x="754" y="398" width="502" height="132" rx="10" fill="#fff" stroke="#E2E6EB"/>
  <text x="778" y="440" fill="#6B7280" font-family="Assistant, Arial, sans-serif" font-size="13">יתרה לגבייה</text>
  <text x="778" y="484" fill="#111827" font-family="Assistant, Arial, sans-serif" font-size="28" font-weight="700">₪74,200</text>
  <rect x="240" y="560" width="1016" height="192" rx="10" fill="#fff" stroke="#E2E6EB"/>
  <text x="264" y="600" fill="#111827" font-family="Assistant, Arial, sans-serif" font-size="15" font-weight="700">פעילות אחרונה</text>
  <text x="264" y="640" fill="#4B5563" font-family="Assistant, Arial, sans-serif" font-size="13">חשבון התקדמות הוכן · יומן שטח עודכן · מסמך חוזה צורף</text>

</svg>
